<?xml version="1.0" encoding="UTF-8"?>
<svg xmlns="http://www.w3.org/2000/svg" viewBox="0 0 80 80" width="80" height="80">
  <defs>
    <linearGradient id="brand" x1="0" y1="1" x2="1" y2="0">
      <stop offset="0%" stop-color="#D63A91"/>
      <stop offset="100%" stop-color="#4A1766"/>
    </linearGradient>
  </defs>
  <rect x="0" y="0" width="80" height="80" rx="16" fill="url(#brand)"/>
  <path d="M40 68 L40 42" stroke="#FFFFFF" stroke-width="4" stroke-linecap="round" fill="none"/>
  <path d="M40 44 C 28 36, 18 34, 10 30 C 20 25, 32 28, 40 38" fill="#FFFFFF" opacity="0.95"/>
  <path d="M40 44 C 52 36, 62 34, 70 30 C 60 25, 48 28, 40 38" fill="#FFFFFF" opacity="0.95"/>
  <path d="M40 44 C 34 30, 34 20, 40 12 C 46 20, 46 30, 40 44" fill="#FFFFFF" opacity="0.95"/>
  <rect x="30" y="56" width="20" height="14" rx="2" fill="#FFFFFF" opacity="0.85"/>
  <path d="M27 57 L40 46 L53 57" stroke="#FFFFFF" stroke-width="3" stroke-linecap="round" stroke-linejoin="round" fill="none" opacity="0.85"/>
  <rect x="37" y="62" width="6" height="8" rx="1" fill="url(#brand)"/>
</svg>
