<?xml version="1.0" encoding="UTF-8"?>
<svg xmlns="http://www.w3.org/2000/svg" viewBox="0 0 320 80" width="320" height="80">
  <defs>
    <linearGradient id="brand" x1="0" y1="1" x2="1" y2="0">
      <stop offset="0%" stop-color="#D63A91"/>
      <stop offset="100%" stop-color="#4A1766"/>
    </linearGradient>
  </defs>
  <rect x="4" y="4" width="72" height="72" rx="14" fill="url(#brand)"/>
  <g stroke="#FFFFFF" stroke-width="3" stroke-linecap="round" fill="none">
    <path d="M40 62 V42"/>
    <path d="M40 42 C 30 34, 22 32, 16 30 C 24 26, 34 28, 40 36"/>
    <path d="M40 42 C 50 34, 58 32, 64 30 C 56 26, 46 28, 40 36"/>
    <path d="M40 42 C 36 30, 36 22, 40 16 C 44 22, 44 30, 40 42"/>
  </g>
  <g fill="#1F1030" font-family="Segoe UI, Helvetica Neue, Arial, sans-serif">
    <text x="92" y="40" font-size="22" font-weight="700" letter-spacing="0.5">Mortgage</text>
    <text x="92" y="64" font-size="18" font-weight="500" fill="#4A1766">Oasis</text>
  </g>
</svg>
